<svg width="314" height="59" viewBox="0 0 314 59" fill="none" xmlns="http://www.w3.org/2000/svg">
<path d="M20.0412 20H34.1532V17.228H20.0412C15.8412 17.228 12.8732 14.54 12.8732 10.34V10.06C12.8732 5.86 15.8412 3.172 20.0412 3.172H34.1532V0.399999H20.0412C14.2172 0.399999 10.1012 4.236 10.1012 10.06V10.34C10.1012 16.164 14.2172 20 20.0412 20ZM46.0396 20.28H55.2796C60.8516 20.28 63.2596 17.06 63.2596 12.3V0.399999H60.4876V12.44C60.4876 15.352 59.0596 17.648 55.2796 17.648H46.0396C42.2876 17.648 40.8316 15.38 40.8316 12.44V0.399999H38.0596V12.3C38.0596 17.088 40.4676 20.28 46.0396 20.28ZM67.1807 20H69.9807V3.004H82.5527C86.0527 3.004 87.1167 3.816 87.1167 5.748V6.14C87.1167 8.1 86.0527 8.884 82.5527 8.884H81.6567V11.488L86.7247 20H89.8607L84.6247 11.404C88.9647 10.9 89.8607 8.212 89.8607 6.168V5.72C89.8607 3.536 88.9087 0.399999 83.1407 0.399999H67.1807V20ZM93.7862 20H96.5862V3.004H109.158C112.658 3.004 113.722 3.816 113.722 5.748V6.14C113.722 8.1 112.658 8.884 109.158 8.884H108.262V11.488L113.33 20H116.466L111.23 11.404C115.57 10.9 116.466 8.212 116.466 6.168V5.72C116.466 3.536 115.514 0.399999 109.746 0.399999H93.7862V20ZM120.392 3.2H143.072V0.399999H120.392V3.2ZM120.392 11.6H143.072V8.8H120.392V11.6ZM120.392 20H143.072V17.2H120.392V20ZM152.485 3.2C153.409 3.2 154.305 3.732 154.725 4.572L161.081 16.892C162.061 18.768 164.105 20 166.205 20H171.077V0.399999H168.277V17.2H165.589C164.665 17.2 163.769 16.64 163.349 15.828L156.993 3.508C156.013 1.632 153.969 0.399999 151.869 0.399999H146.997V20H149.797V3.2H152.485ZM174.437 3.2H181.577V0.399999H174.437V3.2ZM184.377 20H187.177V4.74C187.177 3.816 187.793 3.2 188.717 3.2H197.117V0.399999H187.877C185.777 0.399999 184.377 1.8 184.377 3.9V20ZM200.481 20H220.445V17.2H203.281V0.399999H200.481V20ZM228.723 20H231.523V11.6H232.783C233.707 11.6 234.659 11.068 235.135 10.284L241.155 0.399999H238.047L233.063 8.492C232.951 8.716 232.699 8.856 232.447 8.856H227.799C227.547 8.856 227.267 8.716 227.155 8.492L222.171 0.399999H219.063L225.111 10.284C225.615 11.068 226.539 11.6 227.463 11.6H228.723V20ZM258.532 20H261.332V0.399999H258.532V20ZM270.747 3.2C271.671 3.2 272.567 3.732 272.987 4.572L279.343 16.892C280.323 18.768 282.367 20 284.467 20H289.339V0.399999H286.539V17.2H283.851C282.927 17.2 282.031 16.64 281.611 15.828L275.255 3.508C274.275 1.632 272.231 0.399999 270.131 0.399999H265.259V20H268.059V3.2H270.747ZM6.71252 50.6H16.8485C18.5005 50.6 20.4325 51.328 20.4325 53.288C20.4325 55.248 18.5845 56.2 16.8485 56.2H0.188516V59H16.8485C19.8445 59 23.3725 57.292 23.3725 53.288C23.3725 49.284 19.8445 47.8 16.8485 47.8L6.71252 47.772C5.06052 47.772 3.12852 47.072 3.12852 45.112C3.12852 43.152 4.97652 42.2 6.71252 42.2H23.3725V39.4H6.71252C3.71652 39.4 0.188516 41.108 0.188516 45.112C0.188516 49.116 3.71652 50.6 6.71252 50.6ZM26.7262 42.2H33.8662V39.4H26.7262V42.2ZM36.6662 59H39.4662V43.74C39.4662 42.816 40.0822 42.2 41.0062 42.2H49.4062V39.4H40.1662C38.0662 39.4 36.6662 40.8 36.6662 42.9V59ZM52.7705 42.2H75.4505V39.4H52.7705V42.2ZM52.7705 50.6H75.4505V47.8H52.7705V50.6ZM52.7705 59H75.4505V56.2H52.7705V59ZM99.452 42.704C98.78 40.716 96.904 39.4 94.804 39.4H89.176C87.076 39.4 85.2 40.716 84.528 42.704L78.816 59H81.728L86.908 44.188C87.328 42.984 88.448 42.2 89.708 42.2H94.272C95.532 42.2 96.652 42.984 97.072 44.188L102.252 59H105.164L99.452 42.704ZM108.524 59H128.488V56.2H111.324V39.4H108.524V59ZM127.078 42.2H134.218V39.4H127.078V42.2ZM137.018 59H139.818V43.74C139.818 42.816 140.434 42.2 141.358 42.2H149.758V39.4H140.518C138.418 39.4 137.018 40.8 137.018 42.9V59ZM153.122 59H155.922V50.6H174.122V59H176.922V39.4H174.122V47.8H155.922V39.4H153.122V59ZM198.769 42.2C199.693 42.2 200.589 42.76 200.981 43.6L207.029 56.256C207.813 57.908 209.577 59 211.397 59C213.273 59 215.037 57.908 215.821 56.256L221.869 43.6C222.261 42.76 223.157 42.2 224.081 42.2H225.145V59H227.945V39.4H224.305C222.205 39.4 220.189 40.66 219.293 42.564L213.329 54.996C212.993 55.724 212.237 56.2 211.453 56.2C210.613 56.2 209.857 55.724 209.521 54.996L203.557 42.564C202.661 40.66 200.645 39.4 198.545 39.4H194.877V59H197.677V42.2H198.769ZM241.279 59H249.959C255.783 59 259.899 55.164 259.899 49.34V49.06C259.899 43.236 255.783 39.4 249.959 39.4H241.279C235.455 39.4 231.339 43.236 231.339 49.06V49.34C231.339 55.164 235.455 59 241.279 59ZM241.279 56.228C237.079 56.228 234.111 53.54 234.111 49.34V49.06C234.111 44.86 237.079 42.172 241.279 42.172H249.959C254.159 42.172 257.127 44.86 257.127 49.06V49.34C257.127 53.54 254.159 56.228 249.959 56.228H241.279ZM263.263 55.5C263.263 57.6 264.663 59 266.763 59H277.823C283.647 59 287.763 54.996 287.763 49.312V49.06C287.763 43.376 283.647 39.372 277.823 39.4H266.763C264.663 39.4 263.263 40.8 263.263 42.9V55.5ZM267.603 56.284C266.679 56.284 266.063 55.668 266.063 54.744V43.628C266.063 42.704 266.679 42.088 267.603 42.088H277.795C281.995 42.088 284.991 44.972 284.991 49.06V49.312C284.991 53.4 281.995 56.312 277.795 56.284H267.603ZM291.126 42.2H313.806V39.4H291.126V42.2ZM291.126 50.6H313.806V47.8H291.126V50.6ZM291.126 59H313.806V56.2H291.126V59Z" fill="#EFEDE6"/>
</svg>
